# xmcd
#
# Track frame offsets: 
#        150
#        19896
#        38573
#        55050
#        72660
#        87069
#        99839
#        123138
#        140092
#        159277
#        180696
#        198016
#        217585
#        235890
#        256377
#        274854
#        292307
#        308052
#        326191
#
# Disc length: 4606 seconds
#
# Revision: 0
# Processed by: cddbd v1.5.2PL0 Copyright (c) Steve Scherf et al.
# Submitted via: ExactAudioCopy v1.1
#
DISCID=0b11fc13
DTITLE=Various Artist - Nostalgie - Le Meilleur Du Top 1000 (2015) - CD 1
DYEAR=2015
DGENRE=Top 40
TTITLE0=Duran Duran - The Reflex
TTITLE1=Céline Dion - Pour Que Tu M'Aimes Encore
TTITLE2=Wham! - Wake Me Up Before You Go-Go
TTITLE3=Whitney Houston - Saving All My Love For You
TTITLE4=Fleetwood Mac - Don't Stop
TTITLE5=Joe Dassin - A Toi
TTITLE6=Scorpions - Wind Of Change
TTITLE7=A - Ha - Take On Me
TTITLE8=Françoise Hardy - Message Personnel
TTITLE9=Alannah Myles - Black Velvet
TTITLE10=Nena - 99 Luftballons
TTITLE11=Toto - Africa
TTITLE12=Natalie Imbruglia - Torn
TTITLE13=Chris Rea - Josephine
TTITLE14=Umberto Tozzi - Ti Amo
TTITLE15=Talk Talk - It's My Life
TTITLE16=Daniel Guichard - Mon Vieux
TTITLE17=Frida - I Know There's Something Going On
TTITLE18=Anggun - La Neige Au Sahara
EXTD=
EXTT0=
EXTT1=
EXTT2=
EXTT3=
EXTT4=
EXTT5=
EXTT6=
EXTT7=
EXTT8=
EXTT9=
EXTT10=
EXTT11=
EXTT12=
EXTT13=
EXTT14=
EXTT15=
EXTT16=
EXTT17=
EXTT18=
PLAYORDER=
